grf
version=1
nRows=23
nColumns=46
inDegrees=yes
endheader
time	ground_force_1_vx	ground_force_1_vy	ground_force_1_vz	ground_force_1_px	ground_force_1_py	ground_force_1_pz	ground_moment_1_mx	ground_moment_1_my	ground_moment_1_mz	ground_force_2_vx	ground_force_2_vy	ground_force_2_vz	ground_force_2_px	ground_force_2_py	ground_force_2_pz	ground_moment_2_mx	ground_moment_2_my	ground_moment_2_mz	ground_force_3_vx	ground_force_3_vy	ground_force_3_vz	ground_force_3_px	ground_force_3_py	ground_force_3_pz	ground_moment_3_mx	ground_moment_3_my	ground_moment_3_mz	ground_force_4_vx	ground_force_4_vy	ground_force_4_vz	ground_force_4_px	ground_force_4_py	ground_force_4_pz	ground_moment_4_mx	ground_moment_4_my	ground_moment_4_mz	ground_force_5_vx	ground_force_5_vy	ground_force_5_vz	ground_force_5_px	ground_force_5_py	ground_force_5_pz	ground_moment_5_mx	ground_moment_5_my	ground_moment_5_mz
2.265000	0.000000	0.000000	0.000000	0.000000	0.000000	0.000000	0.000000	0.000000	0.000000	0.000000	0.000000	0.000000	0.000000	0.000000	0.000000	0.000000	0.000000	0.000000	0.000000	0.000000	0.000000	0.000000	0.000000	0.000000	0.000000	0.000000	0.000000	17.438361	589.056090	-72.852974	0.190143	0.000000	-0.893653	-0.000000	8.574514	0.000000	17.670838	567.689274	93.635893	0.230433	0.000000	-1.602320	-0.000000	-3.530342	-0.000000
2.265500	0.000000	0.000000	0.000000	0.000000	0.000000	0.000000	0.000000	0.000000	0.000000	0.000000	0.000000	0.000000	0.000000	0.000000	0.000000	0.000000	0.000000	0.000000	0.000000	0.000000	0.000000	0.000000	0.000000	0.000000	0.000000	0.000000	0.000000	17.463065	588.652836	-73.108695	0.190154	0.000000	-0.893587	-0.000000	8.563680	0.000000	17.562723	567.172980	93.777787	0.230469	0.000000	-1.602348	-0.000000	-3.513472	-0.000000
2.266000	0.000000	0.000000	0.000000	0.000000	0.000000	0.000000	0.000000	0.000000	0.000000	0.000000	0.000000	0.000000	0.000000	0.000000	0.000000	0.000000	0.000000	0.000000	0.000000	0.000000	0.000000	0.000000	0.000000	0.000000	0.000000	0.000000	0.000000	17.488421	588.253008	-73.361659	0.190165	0.000000	-0.893521	-0.000000	8.552863	0.000000	17.454436	566.661142	93.917343	0.230505	0.000000	-1.602375	-0.000000	-3.496770	-0.000000
2.266500	0.000000	0.000000	0.000000	0.000000	0.000000	0.000000	0.000000	0.000000	0.000000	0.000000	0.000000	0.000000	0.000000	0.000000	0.000000	0.000000	0.000000	0.000000	0.000000	0.000000	0.000000	0.000000	0.000000	0.000000	0.000000	0.000000	0.000000	17.514492	587.856748	-73.611916	0.190175	0.000000	-0.893457	-0.000000	8.542062	0.000000	17.346111	566.154109	94.054550	0.230541	0.000000	-1.602402	-0.000000	-3.480234	-0.000000
2.267000	0.000000	0.000000	0.000000	0.000000	0.000000	0.000000	0.000000	0.000000	0.000000	0.000000	0.000000	0.000000	0.000000	0.000000	0.000000	0.000000	0.000000	0.000000	0.000000	0.000000	0.000000	0.000000	0.000000	0.000000	0.000000	0.000000	0.000000	17.541337	587.464197	-73.859515	0.190185	0.000000	-0.893393	-0.000000	8.531279	0.000000	17.237881	565.652231	94.189401	0.230577	0.000000	-1.602428	-0.000000	-3.463867	-0.000000
2.267500	0.000000	0.000000	0.000000	0.000000	0.000000	0.000000	0.000000	0.000000	0.000000	0.000000	0.000000	0.000000	0.000000	0.000000	0.000000	0.000000	0.000000	0.000000	0.000000	0.000000	0.000000	0.000000	0.000000	0.000000	0.000000	0.000000	0.000000	17.569005	587.075489	-74.104506	0.190194	0.000000	-0.893331	-0.000000	8.520513	0.000000	17.129878	565.155859	94.321893	0.230613	0.000000	-1.602454	-0.000000	-3.447667	-0.000000
2.268000	0.000000	0.000000	0.000000	0.000000	0.000000	0.000000	0.000000	0.000000	0.000000	0.000000	0.000000	0.000000	0.000000	0.000000	0.000000	0.000000	0.000000	0.000000	0.000000	0.000000	0.000000	0.000000	0.000000	0.000000	0.000000	0.000000	0.000000	17.597536	586.690752	-74.346941	0.190202	0.000000	-0.893269	-0.000000	8.509766	0.000000	17.022231	564.665340	94.452025	0.230649	0.000000	-1.602479	-0.000000	-3.431632	-0.000000
2.268500	0.000000	0.000000	0.000000	0.000000	0.000000	0.000000	0.000000	0.000000	0.000000	0.000000	0.000000	0.000000	0.000000	0.000000	0.000000	0.000000	0.000000	0.000000	0.000000	0.000000	0.000000	0.000000	0.000000	0.000000	0.000000	0.000000	0.000000	17.626960	586.310102	-74.586873	0.190210	0.000000	-0.893207	-0.000000	8.499040	0.000000	16.915064	564.181013	94.579805	0.230684	0.000000	-1.602503	-0.000000	-3.415763	-0.000000
2.269000	0.000000	0.000000	0.000000	0.000000	0.000000	0.000000	0.000000	0.000000	0.000000	0.000000	0.000000	0.000000	0.000000	0.000000	0.000000	0.000000	0.000000	0.000000	0.000000	0.000000	0.000000	0.000000	0.000000	0.000000	0.000000	0.000000	0.000000	17.657301	585.933637	-74.824367	0.190218	0.000000	-0.893147	-0.000000	8.488335	0.000000	16.808492	563.703198	94.705249	0.230720	0.000000	-1.602527	-0.000000	-3.400058	-0.000000
2.269500	0.000000	0.000000	0.000000	0.000000	0.000000	0.000000	0.000000	0.000000	0.000000	0.000000	0.000000	0.000000	0.000000	0.000000	0.000000	0.000000	0.000000	0.000000	0.000000	0.000000	0.000000	0.000000	0.000000	0.000000	0.000000	0.000000	0.000000	17.688580	585.561437	-75.059493	0.190225	0.000000	-0.893087	-0.000000	8.477656	0.000000	16.702627	563.232192	94.828379	0.230755	0.000000	-1.602549	-0.000000	-3.384514	-0.000000
2.270000	0.000000	0.000000	0.000000	0.000000	0.000000	0.000000	0.000000	0.000000	0.000000	0.000000	0.000000	0.000000	0.000000	0.000000	0.000000	0.000000	0.000000	0.000000	0.000000	0.000000	0.000000	0.000000	0.000000	0.000000	0.000000	0.000000	0.000000	17.720818	585.193569	-75.292328	0.190232	0.000000	-0.893027	-0.000000	8.467004	0.000000	16.597578	562.768265	94.949220	0.230789	0.000000	-1.602571	-0.000000	-3.369131	-0.000000
2.270500	0.000000	0.000000	0.000000	0.000000	0.000000	0.000000	0.000000	0.000000	0.000000	0.000000	0.000000	0.000000	0.000000	0.000000	0.000000	0.000000	0.000000	0.000000	0.000000	0.000000	0.000000	0.000000	0.000000	0.000000	0.000000	0.000000	0.000000	17.754036	584.830090	-75.522950	0.190238	0.000000	-0.892969	-0.000000	8.456384	0.000000	16.493457	562.311660	95.067797	0.230824	0.000000	-1.602593	-0.000000	-3.353903	-0.000000
2.271000	0.000000	0.000000	0.000000	0.000000	0.000000	0.000000	0.000000	0.000000	0.000000	0.000000	0.000000	0.000000	0.000000	0.000000	0.000000	0.000000	0.000000	0.000000	0.000000	0.000000	0.000000	0.000000	0.000000	0.000000	0.000000	0.000000	0.000000	17.788257	584.471053	-75.751435	0.190243	0.000000	-0.892910	-0.000000	8.445797	0.000000	16.390376	561.862596	95.184142	0.230857	0.000000	-1.602613	-0.000000	-3.338827	-0.000000
2.271500	0.000000	0.000000	0.000000	0.000000	0.000000	0.000000	0.000000	0.000000	0.000000	0.000000	0.000000	0.000000	0.000000	0.000000	0.000000	0.000000	0.000000	0.000000	0.000000	0.000000	0.000000	0.000000	0.000000	0.000000	0.000000	0.000000	0.000000	17.823500	584.116497	-75.977855	0.190248	0.000000	-0.892853	-0.000000	8.435246	0.000000	16.288446	561.421264	95.298294	0.230891	0.000000	-1.602633	-0.000000	-3.323894	-0.000000
2.272000	0.000000	0.000000	0.000000	0.000000	0.000000	0.000000	0.000000	0.000000	0.000000	0.000000	0.000000	0.000000	0.000000	0.000000	0.000000	0.000000	0.000000	0.000000	0.000000	0.000000	0.000000	0.000000	0.000000	0.000000	0.000000	0.000000	0.000000	17.859785	583.766439	-76.202276	0.190253	0.000000	-0.892796	-0.000000	8.424734	0.000000	16.187778	560.987839	95.410297	0.230924	0.000000	-1.602652	-0.000000	-3.309096	-0.000000
2.272500	0.000000	0.000000	0.000000	0.000000	0.000000	0.000000	0.000000	0.000000	0.000000	0.000000	0.000000	0.000000	0.000000	0.000000	0.000000	0.000000	0.000000	0.000000	0.000000	0.000000	0.000000	0.000000	0.000000	0.000000	0.000000	0.000000	0.000000	17.897129	583.420881	-76.424754	0.190257	0.000000	-0.892739	-0.000000	8.414261	0.000000	16.088479	560.562476	95.520202	0.230956	0.000000	-1.602670	-0.000000	-3.294426	-0.000000
2.273000	0.000000	0.000000	0.000000	0.000000	0.000000	0.000000	0.000000	0.000000	0.000000	0.000000	0.000000	0.000000	0.000000	0.000000	0.000000	0.000000	0.000000	0.000000	0.000000	0.000000	0.000000	0.000000	0.000000	0.000000	0.000000	0.000000	0.000000	17.935544	583.079809	-76.645336	0.190260	0.000000	-0.892683	-0.000000	8.403829	0.000000	15.990653	560.145325	95.628060	0.230988	0.000000	-1.602688	-0.000000	-3.279875	-0.000000
2.273500	0.000000	0.000000	0.000000	0.000000	0.000000	0.000000	0.000000	0.000000	0.000000	0.000000	0.000000	0.000000	0.000000	0.000000	0.000000	0.000000	0.000000	0.000000	0.000000	0.000000	0.000000	0.000000	0.000000	0.000000	0.000000	0.000000	0.000000	17.975039	582.743202	-76.864072	0.190263	0.000000	-0.892628	-0.000000	8.393440	0.000000	15.894400	559.736519	95.733923	0.231020	0.000000	-1.602704	-0.000000	-3.265434	-0.000000
2.274000	0.000000	0.000000	0.000000	0.000000	0.000000	0.000000	0.000000	0.000000	0.000000	0.000000	0.000000	0.000000	0.000000	0.000000	0.000000	0.000000	0.000000	0.000000	0.000000	0.000000	0.000000	0.000000	0.000000	0.000000	0.000000	0.000000	0.000000	18.015612	582.411028	-77.081016	0.190266	0.000000	-0.892573	-0.000000	8.383094	0.000000	15.799815	559.336170	95.837841	0.231050	0.000000	-1.602720	-0.000000	-3.251097	-0.000000
2.274500	0.000000	0.000000	0.000000	0.000000	0.000000	0.000000	0.000000	0.000000	0.000000	0.000000	0.000000	0.000000	0.000000	0.000000	0.000000	0.000000	0.000000	0.000000	0.000000	0.000000	0.000000	0.000000	0.000000	0.000000	0.000000	0.000000	0.000000	18.057254	582.083241	-77.296223	0.190268	0.000000	-0.892519	-0.000000	8.372793	0.000000	15.706993	558.944361	95.939867	0.231080	0.000000	-1.602734	-0.000000	-3.236854	-0.000000
2.275000	0.000000	0.000000	0.000000	0.000000	0.000000	0.000000	0.000000	0.000000	0.000000	0.000000	0.000000	0.000000	0.000000	0.000000	0.000000	0.000000	0.000000	0.000000	0.000000	0.000000	0.000000	0.000000	0.000000	0.000000	0.000000	0.000000	0.000000	18.099943	581.759784	-77.509749	0.190270	0.000000	-0.892465	-0.000000	8.362537	0.000000	15.616023	558.561142	96.040059	0.231109	0.000000	-1.602748	-0.000000	-3.222696	-0.000000
2.275500	0.000000	0.000000	0.000000	0.000000	0.000000	0.000000	0.000000	0.000000	0.000000	0.000000	0.000000	0.000000	0.000000	0.000000	0.000000	0.000000	0.000000	0.000000	0.000000	0.000000	0.000000	0.000000	0.000000	0.000000	0.000000	0.000000	0.000000	18.143648	581.440589	-77.721644	0.190272	0.000000	-0.892412	-0.000000	8.352329	0.000000	15.526997	558.186529	96.138481	0.231138	0.000000	-1.602761	-0.000000	-3.208613	-0.000000
2.276000	0.000000	0.000000	0.000000	0.000000	0.000000	0.000000	0.000000	0.000000	0.000000	0.000000	0.000000	0.000000	0.000000	0.000000	0.000000	0.000000	0.000000	0.000000	0.000000	0.000000	0.000000	0.000000	0.000000	0.000000	0.000000	0.000000	0.000000	18.188324	581.125581	-77.931957	0.190273	0.000000	-0.892359	-0.000000	8.342172	0.000000	15.440002	557.820508	96.235203	0.231166	0.000000	-1.602774	-0.000000	-3.194595	-0.000000
